<?xml version="1.0" encoding="utf-8"?>
<!-- Generator: Adobe Illustrator 27.5.0, SVG Export Plug-In . SVG Version: 6.00 Build 0)  -->
<svg version="1.1" id="Livello_1" xmlns="http://www.w3.org/2000/svg" xmlns:xlink="http://www.w3.org/1999/xlink" x="0px" y="0px"
	 viewBox="0 0 1024 700" style="enable-background:new 0 0 1024 700;" xml:space="preserve">
<style type="text/css">
	.st0{opacity:0.7;fill:#19518F;enable-background:new    ;}
	.st1{fill:#55D2D0;}
	.st2{fill:#3A6592;}
	.st3{fill:#48B7B3;}
	.st4{opacity:0.2;fill:#ACEEE5;enable-background:new    ;}
	.st5{opacity:0.1;fill:#213D5D;enable-background:new    ;}
	.st6{fill:#FFC1B7;}
	.st7{fill:#FFA498;}
	.st8{fill:#27314A;}
	.st9{fill:#FFB017;}
	.st10{fill:#6D263B;}
	.st11{fill:#B0CFE7;}
	.st12{fill:#CE4D4F;}
	.st13{fill:#FFFFFF;}
	.st14{fill:#DB8E17;}
	.st15{fill:#E35F64;}
	.st16{fill:#F8E8D7;}
	.st17{opacity:0.7;enable-background:new    ;}
	.st18{fill:#19518F;}
	.st19{fill:none;stroke:#CE4D4F;stroke-miterlimit:10;}
	.st20{fill:#213D5D;}
</style>
<g>
	<path class="st0" d="M524.24,565.19c0,0,62.84-49.08,171.2,4.27c108.35,53.34,253.55,46.93,294.72-85.34
		c41.17-132.27,48.74-339.59-149.53-345.61c-179.22-5.43-237.34-34.43-304.51-81.35S221.7-7.54,97.65,147.05
		c-99.3,123.76-122.69,254.7-24.59,387.4C195.24,699.75,370.39,680.39,524.24,565.19z"/>
	<g>
		<path class="st1" d="M213.74,496.42c0,0-19.91-45.24,4.64-100.93c0,0,1.53,16.72-1.13,70.38c0,0-1.78-23.4,22.7-63.19
			c0,0-4.36,38.24-19.43,82.04c0,0,8.71-35.11,24.64-47.12C245.16,437.59,243.52,474.82,213.74,496.42z"/>
		<g>
			<g>
				<g>
					<path class="st2" d="M163.93,360.8c9.69-1.34,22-3.46,30.59,2.62c4.7,3.33,7.08,8.84,8.18,14.34
						c1.31,6.56-0.32,13.09-1.01,19.63c-0.68,6.64,0.19,13.19,3.77,18.94c2.9,4.68,7.07,7.96,12.11,10.06
						c4.87,2.05,10.1,3.21,14.7,5.89c5.21,3.03,9.2,7.78,11.43,13.36c4.87,12.17,2.75,26.35,0.28,38.81
						c-0.19,0.95,1.26,1.36,1.45,0.4c2.27-11.48,4.05-23.83,1.09-35.35c-1.42-5.53-4.11-10.57-8.24-14.54
						c-4.15-3.98-9.28-6.12-14.65-7.94c-5.46-1.86-10.76-3.89-14.65-8.37c-4.91-5.66-6.53-12.96-5.9-20.27
						c0.56-6.59,2.27-13.05,1.27-19.69c-0.83-5.57-3.1-11.38-7.38-15.2c-8.88-7.92-22.75-5.61-33.46-4.13
						C162.57,359.48,162.98,360.93,163.93,360.8L163.93,360.8z"/>
				</g>
			</g>
			<path class="st2" d="M166.42,359.55c0,0,1.23,18.43-22.78,11.11C143.64,370.66,151.57,351.7,166.42,359.55z"/>
			<path class="st2" d="M220.25,427.4c0,0,13.89,12.19-8.29,23.95C211.96,451.35,204.19,432.31,220.25,427.4z"/>
			<path class="st2" d="M206.99,418.74c0,0,1.23,18.43-22.78,11.11C184.21,429.86,192.14,410.89,206.99,418.74z"/>
			<path class="st2" d="M212.44,421.74c0,0-7.31-16.97,17.76-18.07C230.22,403.66,229.06,424.18,212.44,421.74z"/>
			<path class="st2" d="M202.04,404.49c0,0-9.3,15.96-25.1-3.53C176.94,400.96,194.13,389.69,202.04,404.49z"/>
			<path class="st2" d="M203.8,392.11c0,0,8.47-16.42,25.25,2.24C229.05,394.36,212.47,406.5,203.8,392.11z"/>
			<path class="st2" d="M203.18,374.44c0,0,3.25-18.19,24.78-5.3C227.98,369.13,215.7,385.61,203.18,374.44z"/>
			<path class="st2" d="M203.16,381.84c0,0-4.64,17.88-25.11,3.37C178.03,385.21,191.54,369.72,203.16,381.84z"/>
			<path class="st2" d="M196.76,363.48c0,0-8.92-16.18,15.94-19.71C212.68,343.77,213.53,364.31,196.76,363.48z"/>
			<path class="st2" d="M185.38,360.12c0,0,11.75,14.26-12.02,22.31C173.35,382.43,168.75,362.41,185.38,360.12z"/>
			<path class="st2" d="M179.87,358.33c0,0-18.47-0.2-9.32-23.57C170.54,334.76,188.83,344.13,179.87,358.33z"/>
		</g>
		<path class="st1" d="M233.4,636.45c0,0-66.48-57.43-143.94-56.52c0,0,18.81,10.14,82.96,33.83c0,0-26.5-13.79-85.32-5
			c0,0,46.94,14.01,105.77,18.25c0,0-45.45-7.35-67.48,5.31C125.37,632.33,193.23,660.53,233.4,636.45z"/>
		<path class="st1" d="M213.46,500.17c0,0,5.38-49.13-34.77-94.86c0,0,3.57,16.39,22.24,66.77c0,0-5.33-22.85-40.65-53.44
			c0,0,15.66,35.15,43.2,72.41c0,0-18.86-30.87-37.67-37.52C165.81,453.53,178.57,488.54,213.46,500.17z"/>
		<g>
			<g>
				<g>
					<path class="st2" d="M67.46,543.92c5.97,7.94,12.54,16.21,21.51,20.89c8.53,4.45,18.37,4.95,27.81,4.7
						c5.41-0.15,10.54-0.39,15.68,1.62c4.13,1.62,7.69,4.37,10.87,7.41c6.6,6.27,12.22,13.66,20.45,17.94
						c6.4,3.34,13.82,4.7,21,4.27c8.36-0.5,16.33-3.25,24.07-6.25c1.4-0.54,0.79-2.8-0.63-2.27c-13.2,5.11-27.61,9.16-41.28,3.17
						c-8.48-3.72-14.25-10.92-20.66-17.28c-6.45-6.4-13.9-10.99-23.22-11.16c-5.51-0.11-10.97,0.43-16.5,0.03
						c-4.43-0.32-8.84-1.09-13-2.68c-10.3-3.94-17.63-13.01-24.05-21.57C68.58,541.55,66.54,542.71,67.46,543.92L67.46,543.92z"/>
				</g>
			</g>
			<path class="st2" d="M73.49,549.14c0,0-19.31,3.77-14.78-22.55C58.7,526.59,79.78,532.42,73.49,549.14z"/>
			<path class="st2" d="M146.96,578.56c0,0-18.02-7.89,0.68-26.97C147.64,551.6,161.65,568.39,146.96,578.56z"/>
			<path class="st2" d="M167.22,597.56c0,0,15.08,12.61-8.21,25.69C159.02,623.25,150.27,603.21,167.22,597.56z"/>
			<path class="st2" d="M153.56,588.7c0,0,4.13,19.22-22.28,15.21C131.27,603.92,136.72,582.72,153.56,588.7z"/>
			<path class="st2" d="M133.3,571.03c0,0,8.47,17.75-18.17,19.95C115.15,590.97,115.54,569.1,133.3,571.03z"/>
			<path class="st2" d="M115.14,567.48c0,0-16.66-6.25-0.7-24.4C114.45,543.08,127.92,557.58,115.14,567.48z"/>
			<path class="st2" d="M98.35,568.46c0,0,16.82,10.18-4.21,26.64C94.14,595.1,82.45,576.62,98.35,568.46z"/>
			<path class="st2" d="M78.4,556.68c0,0-0.71,19.65-25.33,9.27C53.07,565.95,63.55,546.75,78.4,556.68z"/>
			<path class="st2" d="M90.56,563.05c0,0-15.35-12.29,7.66-25.87C98.22,537.19,107.39,557.06,90.56,563.05z"/>
		</g>
		<g>
			<path class="st3" d="M248.14,627.68c0,0,17.36-79.1-23.16-85.85c-48.98-8.16-15.27-52.9-54.98-59.81s-15.72-55.69-45.08-69.51
				c-29.35-13.82-27.64,28.5-8.64,53.53c19,25.03-26.76,43.17,25.91,75.99s-18.14,56.99,70.81,87.2
				C301.94,659.46,248.14,627.68,248.14,627.68z"/>
			<path class="st4" d="M250.39,640.58c-1.03-1.38-2.09-2.79-3.21-4.23C166.28,531.36,110.37,411,110.21,410.65
				c-13.11,5.39-8.84,35.73,6.08,55.41c19,25.03-26.76,43.17,25.91,75.99s-18.14,56.99,70.81,87.2
				C230.5,635.19,242.44,638.72,250.39,640.58z"/>
		</g>
		<g>
			<path class="st3" d="M255.12,631.96c0,0,66.05-46.86,40.61-79.1c-30.76-38.99,24.28-49.41-0.47-81.23
				c-24.75-31.82,25.81-51.79,13.39-81.76c-12.44-29.97-39.62,2.51-42.39,33.81c-2.78,31.31-48.85,13.95-31.93,73.65
				c16.92,59.7-51.74,29.98-6.25,112.16S255.12,631.96,255.12,631.96z"/>
			<path class="st4" d="M248.09,643.02c0.16-1.72,0.32-3.47,0.47-5.29C259.29,505.63,298.88,378.96,299,378.6
				c-13.32-4.82-30.57,20.49-32.76,45.09c-2.78,31.31-48.85,13.95-31.93,73.65c16.92,59.7-51.74,29.98-6.25,112.16
				C236.99,625.65,243.46,636.3,248.09,643.02z"/>
		</g>
	</g>
	<circle class="st2" cx="422.95" cy="343.23" r="147.63"/>
	<ellipse class="st5" cx="572.83" cy="653.94" rx="338.68" ry="22.06"/>
	<g>
		<path class="st6" d="M844.17,597.36c0,0,5.45,29.22,6.96,34.01c2.32,7.34,22.9,6.96,24.74-1.15c2.71-11.98,2.71-36.33,2.71-36.33
			L844.17,597.36z"/>
		<path class="st7" d="M845.18,602.82c4.78,2.13,17.08,6.16,33,5.33c0.36-7.86,0.36-14.27,0.36-14.27l-34.4,3.47
			C844.17,597.36,844.57,599.54,845.18,602.82z"/>
		<path class="st6" d="M759.9,597.36c0,0,5.45,29.22,6.96,34.01c2.32,7.34,22.9,6.96,24.74-1.15c2.71-11.98,2.71-36.33,2.71-36.33
			L759.9,597.36z"/>
		<path class="st7" d="M760.93,602.82c4.78,2.13,17.08,6.16,33,5.33c0.36-7.86,0.36-14.27,0.36-14.27l-34.4,3.47
			C759.9,597.36,760.32,599.54,760.93,602.82z"/>
		<path class="st1" d="M864.64,364.69c2.71,8.89,11.2,32.08,11.98,59.14c0.78,27.06,3.86,157.3,5.03,177.4h-41.36
			c0,0-27.44-99.72-28.99-175.08c0,0-9.95,60.25-13.52,86.57c-4.25,31.31,1.54,88.89,1.54,88.89h-44.04c0,0-14.3-95.86-7.73-146.1
			c6.57-50.24,17.78-94.3,17.78-94.3L864.64,364.69z"/>
		<path class="st8" d="M867.72,374.45c-1.26-4.11-2.37-7.45-3.09-9.78l-49.79-1.74l-9.73,2.9l0.19,9.86
			C805.31,375.7,834.69,384.09,867.72,374.45z"/>
		<path class="st8" d="M740,275.44c0,0,12.46,6.09,25.65,5.07c13.19-1.02-0.87-10.14-0.87-10.14L740,275.44z"/>
		<path class="st6" d="M769.76,276.56c1.02-0.28-3.68,17.59-7.73,26.28c-2.52,5.42-22.03,31.11-22.03,31.11l-17.2-10.44
			c0,0,17.2-29.09,18.65-32.56c1.45-3.47,4.92-28.7,4.92-28.7l17.98-2.6L769.76,276.56z"/>
		<path class="st7" d="M746.38,262.26c0,0-0.97,6.96-2.08,14.09c3.35,0.71,16.46,3.68,24.07,7.94c1.21-4.51,1.84-7.85,1.4-7.73
			l-4.67-14.6l-4.71-1.73L746.38,262.26z"/>
		<path class="st9" d="M836.96,211.37c13.76,1.91,24.78,6.25,31.16,12.92c6.37,6.67,8.12,68.7,5.22,77.1l-3.29-1.84l-7.45,7.06
			c0,0-0.3,37.69,5.8,58.84c0,0-48.12,22.03-105.52-4.05c0,0,11.31-19.43,8.12-52.17c-0.51-5.21-6.09-18.84-5.8-31.89
			c0,0-16.81-3.19-25.22-1.88c0,0,7.54-38.99,14.49-47.97c6.96-8.99,22.32-13.63,28.12-15.08c5.8-1.45,16.53,2.03,16.53,2.03
			l23.48-1.15L836.96,211.37z"/>
		<path class="st8" d="M698.46,324.87l103.68,85.7c5.58,4.62,13.78,4.04,18.67-1.29l1.76-1.92c4.94-5.38,4.74-13.7-0.44-18.85
			l-95.45-94.57L698.46,324.87z"/>
		<path class="st10" d="M823.73,126.04c0,0,2.7-18.07,24.07-19.1c21.37-1.03,29.89,15.11,31.65,31.1
			c1.76,16.01,3.92,24.4,9.06,27.66c0,0-20.71,17.63-37.5-3.11C834.21,141.85,823.73,126.04,823.73,126.04z"/>
		<path class="st8" d="M838.77,108.66c-13.15,4.74-15.04,17.39-15.04,17.39s10.06,15.17,26.24,35.27c2.92-0.47,5.19-3.11,6.35-8.87
			C861.23,127.79,845.25,113.38,838.77,108.66z"/>
		<path class="st10" d="M789.48,196.05c-13.42-9.28-19.73-7.58-22.43-42.54c-2.7-34.98,52.11-64.38,78.59-30.83
			c16.65,21.1,18.11,58.95-8.69,68.18C806.94,201.19,789.48,196.05,789.48,196.05z"/>
		<circle class="st8" cx="652.08" cy="250.18" r="91.89"/>
		<circle class="st11" cx="652.08" cy="250.18" r="69.25"/>
		<path class="st6" d="M793.33,197.52c0,0-0.19,5.03-1.15,9.08s-9.57,5.8-9.57,5.8s5.89,14.49,19.43,17.2l4.64,19.52l6.57-18.74
			c0,0,15.8-2.39,23.72-19.01c0,0-3.05-0.32-7.1-2.07c-4.07-1.74-3.86-13.52-3.86-13.52L793.33,197.52z"/>
		<path class="st6" d="M710.44,347.67c-2.54-9.08,0-15.08,2.12-17.98c2.12-2.9,3.86,0.78,4.05,1.93c0.19,1.15-0.39,8.89-0.39,8.89
			s1.54-4.83,4.64-10.24c3.09-5.41,6.57-7.15,8.69-3.09c0,0,3.09-1.74,5.03,2.9c0,0,4.07,0.78,3.29,6.18c0,0,2.71,2.32,1.74,6.18
			c-0.97,3.86-5.22,8.3-6.96,14.3C730.92,362.75,713.87,359.99,710.44,347.67z"/>
		<path class="st8" d="M873.34,301.39c-5.94,1.6-31.74-4.79-35.07-6.67c0,0,1.81-1.81,4.35-2.32l15.66,3.98l6.37,1.52l5.41,1.64
			L873.34,301.39z"/>
		<path class="st6" d="M842.61,292.4c0,0-2.71,9.95-6.96,15.94c-4.25,6-43.87,46.47-45.99,48.22c-2.12,1.74-16.05,1.15-20.1,3.68
			c-4.05,2.51-0.78,5.22,2.32,5.03c3.09-0.19,8.3,0.58,8.3,0.58s-3.29,5.8-5.22,7.73s-7.73,4.83-9.86,5.41
			c-2.12,0.58-1.74,5.41,0.78,5.22c0,0-2.51,4.44,2.71,6.18c0,0-1.15,2.9,3.86,3.29c0,0,0.19,1.36,5.61,0.97
			c5.41-0.39,12.17-7.34,15.08-10.24c2.9-2.9,7.93-11.98,9.27-12.95c1.36-0.97,45.8-37.48,52.56-45.22
			c6.76-7.73,15.08-26.67,15.08-26.67S855.94,289.7,842.61,292.4z"/>
		<path class="st7" d="M832.16,210.19c-0.72-0.24-1.48-0.52-2.29-0.87c-4.07-1.74-3.86-13.52-3.86-13.52l-17.55,0.94l-10.72,1.72
			l-4.76,3.57c-0.07,0.6-0.16,1.23-0.27,1.88C796.31,207.16,809.97,217.47,832.16,210.19z"/>
		<path class="st6" d="M839.51,157.17c0,0,8.2-4.86,13.36,3.33c5.15,8.18-3.25,15.16-10.16,15.15c0,0-6.52,28.88-31.49,29.97
			c-24.85,1.07-35.54-24.38-37.55-43.2c0,0,11.19-5.29,12.42-11.35c1.23-6.06,16.53-6.72,24.15-17.86c0,0,5.89,11.16,13.12,11.75
			C830.6,145.54,837.83,153.04,839.51,157.17z"/>
		<path class="st7" d="M823.37,144.95c-7.23-0.59-13.12-11.75-13.12-11.75c-7.63,11.14-22.91,11.79-24.15,17.86
			s-12.42,11.35-12.42,11.35c0.07,0.63,0.15,1.27,0.23,1.92c4.35-1.01,12.18-6.52,13.99-10.67c2.03-4.64,14.42-6.73,21.67-15.15
			c0,0,5.37,8.26,13.19,9.14c6.1,0.68,12.41,5.66,15.74,7.63C835.81,151.09,829.6,145.46,823.37,144.95z"/>
		<path class="st12" d="M849.59,161.87c0.27-0.64-0.35-1.34-0.8-1.72c-0.54-0.46-1.11-0.82-1.78-1.02
			c-1.23-0.38-2.71-0.13-3.58,0.87c-0.8,0.93-0.97,2.21-0.91,3.39c0.07,1.49,0.27,2.99,0.5,4.47c0.13,0.82,1.38,1.11,1.89,0.5
			c0.5-0.59,1.68-1.38,2.35-0.54c0.28,0.36,0.11,0.91-0.08,1.27c-0.16,0.31-0.39,0.56-0.56,0.87c-0.19,0.34-0.3,0.7-0.38,1.07
			c-0.12,0.5,0.34,1.03,0.86,0.86c1.17-0.36,1.88-1.22,2.28-2.36c0.38-1.1,0.19-2.29-0.56-3.18c-0.99-1.17-2.5-1.31-3.78-0.8
			c-0.05-0.58-0.15-1.14-0.17-1.73c-0.03-0.72-0.12-1.69,0.36-2.27C846.35,160.23,848.81,163.77,849.59,161.87z"/>
		<path class="st7" d="M842.61,292.4c0,0-0.16,0.58-0.44,1.5c2.2,0.7,15.63,2.94,25.79,10.21c1.3-2.74,2.11-4.56,2.11-4.56
			S855.94,289.7,842.61,292.4z"/>
		<path class="st7" d="M783.78,373.71c-0.76,0.35-1.3,1.21-1.84,1.84c-0.6,0.71-1.21,1.42-1.86,2.09c-1.22,1.23-2.59,2.32-4.08,3.21
			c-2.94,1.77-6.16,3.03-9.55,3.53c-0.36,0.05-0.28,0.67,0.09,0.64c3.56-0.24,7.04-1.25,10.05-3.18c1.46-0.94,2.83-2.01,4.05-3.25
			c0.72-0.72,1.41-1.49,2.09-2.27c0.59-0.66,1.36-1.3,1.68-2.13C784.55,373.81,784.08,373.58,783.78,373.71z"/>
		<path class="st7" d="M787.7,380.11c-1.37,1.15-2.62,2.41-4.05,3.5c-1.42,1.07-2.95,2.01-4.52,2.84c-3.17,1.66-6.6,2.8-10.09,3.56
			c-0.47,0.11-0.25,0.78,0.2,0.71c3.64-0.58,7.1-1.78,10.37-3.45c1.64-0.83,3.21-1.78,4.72-2.82c1.48-1.02,3.05-2.13,4.25-3.46
			C789.12,380.38,788.3,379.59,787.7,380.11z"/>
		<path class="st7" d="M787.75,385.64c-1.18,0.38-2.12,1.4-3.14,2.09c-1.09,0.75-2.21,1.46-3.38,2.08
			c-1.17,0.62-2.37,1.18-3.61,1.66c-1.27,0.5-2.62,0.85-3.86,1.37c-0.36,0.15-0.38,0.83,0.11,0.78c1.33-0.17,2.67-0.67,3.9-1.15
			c1.27-0.5,2.52-1.07,3.73-1.72c1.21-0.64,2.37-1.34,3.51-2.11c1.05-0.71,2.43-1.5,3.01-2.66
			C788.1,385.82,787.95,385.57,787.75,385.64z"/>
		<path class="st7" d="M728.88,327.52c-0.6-0.01-1.02,0.59-1.37,1.02c-0.46,0.54-0.86,1.14-1.27,1.72
			c-0.87,1.25-1.62,2.58-2.31,3.93c-0.64,1.3-1.23,2.63-1.73,4c-0.25,0.7-0.48,1.4-0.7,2.11c-0.19,0.62-0.56,1.48-0.31,2.11
			c0.15,0.36,0.54,0.5,0.85,0.23c0.46-0.42,0.52-1.15,0.67-1.73c0.19-0.71,0.4-1.42,0.64-2.12c0.47-1.4,1.03-2.74,1.7-4.05
			c0.64-1.25,1.35-2.44,2.13-3.61c0.42-0.62,0.86-1.21,1.29-1.81c0.32-0.46,0.8-0.95,0.68-1.54
			C729.15,327.62,729.02,327.52,728.88,327.52z"/>
		<path class="st7" d="M734.17,330.8c-0.6,0-1.01,0.48-1.41,0.89c-0.48,0.47-0.93,0.99-1.33,1.52c-0.82,1.06-1.5,2.2-2.08,3.39
			c-0.62,1.27-1.14,2.62-1.53,3.97c-0.2,0.74-0.39,1.48-0.56,2.23c-0.17,0.72-0.42,1.49-0.42,2.23c0,0.35,0.5,0.5,0.66,0.17
			c0.31-0.59,0.43-1.27,0.63-1.91c0.19-0.66,0.4-1.3,0.62-1.95c0.47-1.38,0.94-2.75,1.57-4.07c0.54-1.13,1.17-2.2,1.91-3.21
			c0.38-0.5,0.78-0.98,1.21-1.42c0.4-0.42,1.02-0.78,1.13-1.37C734.6,331.05,734.44,330.8,734.17,330.8z"/>
		<path class="st7" d="M737.4,336.63c-0.56-0.05-0.94,0.4-1.29,0.76c-0.4,0.43-0.76,0.9-1.09,1.38c-0.72,1.05-1.3,2.19-1.8,3.35
			c-0.48,1.13-0.9,2.29-1.27,3.46c-0.35,1.09-1.07,2.56-0.58,3.68c0.16,0.36,0.68,0.15,0.7-0.19c0.03-0.66,0.07-1.21,0.27-1.84
			c0.19-0.56,0.38-1.13,0.56-1.69c0.39-1.11,0.79-2.24,1.27-3.31c0.46-1.01,0.98-1.99,1.6-2.91c0.34-0.5,0.72-0.98,1.11-1.44
			c0.31-0.35,0.64-0.64,0.64-1.14C737.54,336.69,737.47,336.65,737.4,336.63z"/>
		<path class="st8" d="M772.03,244.31c-1.72,2.11-2.48,4.94-3.33,7.49c-0.97,2.88-1.72,5.85-2.35,8.83
			c-0.59,2.79-1.06,5.59-1.38,8.43c-0.3,2.56-1.1,5.98-0.04,8.44c0.09,0.21,0.43,0.19,0.54,0c0.56-1.07,0.63-2.28,0.74-3.47
			c0.12-1.48,0.25-2.94,0.44-4.41c0.36-2.95,0.83-5.89,1.44-8.79c0.58-2.8,1.3-5.57,2.08-8.33c0.74-2.64,1.97-5.3,2.17-8.05
			C772.35,244.29,772.14,244.18,772.03,244.31z"/>
		<path class="st8" d="M845.01,256.81c-0.03-0.08-0.17-0.13-0.23-0.03c-1.11,2.52-0.91,5.73-1.15,8.44
			c-0.3,3.29-0.72,6.56-1.21,9.82c-0.94,6.32-2.55,12.46-3.77,18.72c-0.15,0.78,0.9,1.06,1.18,0.32c2.24-6.02,3.38-12.53,4.33-18.86
			c0.46-3.03,0.78-6.08,1.02-9.14c0.12-1.54,0.21-3.07,0.24-4.62C845.47,259.85,845.59,258.34,845.01,256.81z"/>
		<g>
			<path class="st12" d="M808.81,191.66c-0.94-0.56-2.2-0.76-3.27-0.67c-1.3,0.11-2.52,0.54-3.5,1.42c-0.67,0.6,0.19,1.64,0.94,1.22
				c0.82-0.46,1.73-0.75,2.67-0.75c0.25,0,0.5,0.01,0.75,0.04c0.03,0,0.23,0.03,0.12,0.01c-0.09-0.01,0.07,0.01,0.07,0.01
				c0.15,0.03,0.3,0.05,0.44,0.09c0.59,0.15,0.97,0.35,1.44,0.52c0.3,0.11,0.64,0.23,0.95,0.09c0.04-0.01,0.16-0.11,0.21-0.15
				c0.08-0.08,0.13-0.12,0.19-0.23C810.08,192.59,809.32,191.97,808.81,191.66z"/>
			<path class="st12" d="M809.61,193.49c-0.01,0.01-0.01,0.03-0.03,0.04C809.63,193.46,809.62,193.47,809.61,193.49z"/>
		</g>
		<path class="st13" d="M639.16,201.68c-0.5-3.65-3.97-7.51-8.01-7.07c-3.19,0.35-5.82,1.21-8.65,2.75
			c-1.38,0.75-2.74,1.57-4.04,2.44c-3.26,2.16-6.4,4.6-9.19,7.35c-2.7,2.67-5.23,5.67-6.91,9.1c-0.95,1.93-1.74,3.94-2.31,6.02
			c-0.48,1.76-0.6,3.49-0.12,5.27c0.75,2.78,3.3,5.51,6.44,5.27c2.15-0.16,3.93-0.93,5.49-2.41c0.89-0.85,1.46-1.88,2.12-2.87
			c0.74-1.13,1.56-2.21,2.37-3.29c0.82-1.03,1.64-2.05,2.43-3.09c-0.43,0.56-0.86,1.11-1.3,1.68c2.16-2.76,4.66-5.21,7.38-7.39
			c2.2-1.64,4.55-3.17,7-4.39c0.47-0.16,0.94-0.32,1.44-0.4c1.81-0.28,4.05-2.17,4.87-3.74
			C639.06,205.23,639.41,203.53,639.16,201.68z"/>
		<path class="st13" d="M665.95,197.54c0-0.63-0.16-1.23-0.48-1.78c-0.16-0.6-0.47-1.11-0.91-1.56c-0.17-0.32-0.39-0.6-0.67-0.82
			c-0.48-0.38-0.97-0.74-1.44-1.11c-0.09-0.07-0.19-0.13-0.28-0.19c-0.7-0.46-1.48-0.76-2.28-0.98c-0.51-0.13-1.02-0.25-1.54-0.35
			c-1.06-0.19-2.12-0.32-3.19-0.43c-0.52-0.05-1.05-0.09-1.57-0.04c-1.03,0.12-2.08,0.25-3.1,0.47c-0.25,0.05-0.5,0.12-0.75,0.17
			c-0.39,0.11-0.7,0.25-1.1,0.42c-0.78,0.34-1.61,0.79-2.17,1.45c-1.07,1.22-1.95,2.8-1.86,4.49c0.07,1.57,0.58,3.47,1.86,4.49
			c0.93,0.74,1.74,1.46,2.95,1.74c0.2,0.04,0.4,0.07,0.6,0.09c0.52,0.08,1.03,0.17,1.56,0.31c0.59,0.15,1.19,0.23,1.78,0.35
			c0.6,0.12,1.19,0.28,1.77,0.47c0.28,0.09,0.55,0.19,0.83,0.3c0.3,0.12,0.63,0.16,0.94,0.21c-0.03,0-0.07-0.01-0.09-0.01
			c0.04,0,0.09,0.01,0.13,0.03c0.27,0.04,0.54,0.11,0.8,0.13c0.38,0.07,0.76,0.12,1.13,0.12c0.38,0.03,0.74,0,1.1-0.12
			c0.63,0,1.23-0.16,1.78-0.48c0.6-0.16,1.11-0.47,1.56-0.91c0.27-0.16,0.52-0.35,0.74-0.58c0.04-0.04,0.08-0.08,0.12-0.12
			c1.21-1.26,1.91-2.96,1.93-4.72C666.08,198.24,666.02,197.98,665.95,197.54z"/>
		<path class="st13" d="M686.97,295.18c-0.24-1.01-0.7-1.88-1.38-2.62c-1.41-1.82-3.65-3.17-6.05-3.03
			c-0.24,0.01-0.48,0.01-0.72,0.03c-1.73,0.07-3.17,0.5-4.66,1.3c-0.56,0.31-1.07,0.62-1.6,0.98c-0.48,0.34-0.98,0.66-1.48,0.95
			c-0.62,0.36-1.19,0.79-1.76,1.23c-2,1.45-4.47,2.48-5.63,4.78c-0.56,1.1-0.8,2.2-0.64,3.45c0.17,1.25,0.67,2.12,1.49,3.1
			c1.7,2.04,4.2,2.29,6.64,2.54c1.07,0.11,2.17,0.15,3.26,0.08c1.81-0.11,3.45-0.58,5.1-1.26c1.3-0.52,2.24-0.9,3.29-1.69
			c1.29-0.98,2.46-1.81,3.14-3.34c0.35-0.79,0.68-1.6,1.01-2.4C687.33,297.92,687.33,296.55,686.97,295.18z"/>
	</g>
	<g>
		<path class="st14" d="M261.25,370.67h120.11c4,0,7.78,1.57,10.29,4.28l16.96,18.27c1.68,1.8,4.2,2.84,6.87,2.84h187.5
			c6.64,0,12.02,4.67,12.02,10.44v227.61c0,12.44-11.62,22.51-25.95,22.51H267.16c-10.04,0-18.17-7.06-18.17-15.76V381.29
			C249,375.43,254.49,370.67,261.25,370.67z"/>
		<g>
			<polygon class="st13" points="349.31,234.74 298.77,285.28 298.77,478.91 546.48,478.91 546.48,234.74 			"/>
			<polygon class="st11" points="349.31,285.28 349.31,234.74 298.77,285.28 			"/>
		</g>
		<path class="st9" d="M219.11,427.73h332.82c7.85,0,14.57,4.84,16.02,11.54l43.43,200.61c1.88,8.71-5.81,16.76-16.02,16.76H262.54
			c-7.85,0-14.57-4.84-16.02-11.54l-43.43-200.61C201.2,435.78,208.9,427.73,219.11,427.73z"/>
		<g>
			<path class="st15" d="M432.73,338.44c6.33-6.41,12.65-12.85,18.97-19.28c3.73-3.78,4.06-10.61,0-14.34
				c-4.02-3.69-10.37-4.04-14.34,0c-6.41,6.31-12.83,12.61-19.22,18.93c-6.33-6.33-12.69-12.65-19.13-18.89
				c-3.74-3.86-10.8-4.04-14.5,0c-3.81,4.15-4,10.38,0,14.5c6.22,6.43,12.52,12.76,18.85,19.08c-6.32,6.32-12.61,12.65-18.84,19.08
				c-3.86,3.74-4.04,10.8,0,14.5c4.15,3.81,10.38,4,14.5,0c6.44-6.24,12.79-12.54,19.13-18.89c6.4,6.32,12.81,12.61,19.22,18.92
				c3.78,3.73,10.61,4.07,14.34,0c3.69-4.02,4.04-10.37,0-14.34C445.38,351.28,439.06,344.86,432.73,338.44z"/>
		</g>
	</g>
	<path class="st1" d="M147.88,248.48h-2.17c-0.34-1.03-0.75-2.04-1.25-3.01l1.54-1.54c1.45-1.45,1.45-3.81,0-5.26l-3.66-3.66
		c-1.45-1.45-3.81-1.45-5.26,0l-1.54,1.54c-0.97-0.5-1.96-0.91-3.01-1.25v-2.17c0-2.05-1.66-3.72-3.72-3.72h-5.18
		c-2.05,0-3.72,1.66-3.72,3.72v2.17c-1.03,0.34-2.04,0.75-3.01,1.25l-1.54-1.54c-1.45-1.45-3.81-1.45-5.26,0l-3.66,3.66
		c-1.45,1.45-1.45,3.81,0,5.26l1.54,1.54c-0.5,0.97-0.91,1.96-1.25,3.01h-2.17c-2.05,0-3.72,1.66-3.72,3.72v5.18
		c0,2.05,1.66,3.72,3.72,3.72h2.17c0.34,1.03,0.75,2.04,1.25,3.01l-1.54,1.54c-1.45,1.45-1.45,3.81,0,5.26l3.66,3.66
		c1.45,1.45,3.81,1.45,5.26,0l1.54-1.54c0.97,0.5,1.96,0.91,3.01,1.25v2.17c0,2.05,1.66,3.72,3.72,3.72h5.18
		c2.05,0,3.72-1.66,3.72-3.72v-2.17c1.05-0.34,2.04-0.75,3.01-1.25l1.54,1.54c1.45,1.45,3.81,1.45,5.26,0l3.66-3.66
		c1.45-1.45,1.45-3.81,0-5.26l-1.54-1.54c0.5-0.97,0.91-1.96,1.25-3.01h2.17c2.05,0,3.72-1.66,3.72-3.72v-5.18
		C151.6,250.14,149.94,248.48,147.88,248.48z M126.23,267.81c-7.19,0-13.01-5.82-13.01-13.01s5.82-13.01,13.01-13.01
		c7.19,0,13.01,5.82,13.01,13.01S133.42,267.81,126.23,267.81z"/>
	<path class="st1" d="M693.1,390.1h-2.17c-0.34-1.03-0.75-2.04-1.25-3.01l1.54-1.54c1.45-1.45,1.45-3.81,0-5.26l-3.66-3.66
		c-1.45-1.45-3.81-1.45-5.26,0l-1.54,1.54c-0.97-0.5-1.96-0.91-3.01-1.25v-2.17c0-2.05-1.66-3.72-3.72-3.72h-5.18
		c-2.05,0-3.72,1.66-3.72,3.72v2.17c-1.03,0.34-2.04,0.75-3.01,1.25l-1.54-1.54c-1.45-1.45-3.81-1.45-5.26,0l-3.66,3.66
		c-1.45,1.45-1.45,3.81,0,5.26l1.54,1.54c-0.5,0.97-0.91,1.96-1.25,3.01h-2.17c-2.05,0-3.72,1.66-3.72,3.72v5.18
		c0,2.05,1.66,3.72,3.72,3.72h2.17c0.34,1.03,0.75,2.04,1.25,3.01l-1.54,1.54c-1.45,1.45-1.45,3.81,0,5.26l3.66,3.66
		c1.45,1.45,3.81,1.45,5.26,0l1.54-1.54c0.97,0.5,1.96,0.91,3.01,1.25v2.17c0,2.05,1.66,3.72,3.72,3.72h5.18
		c2.05,0,3.72-1.66,3.72-3.72v-2.17c1.03-0.34,2.04-0.75,3.01-1.25l1.54,1.54c1.45,1.45,3.81,1.45,5.26,0l3.66-3.66
		c1.45-1.45,1.45-3.81,0-5.26l-1.54-1.54c0.5-0.97,0.91-1.96,1.25-3.01h2.17c2.05,0,3.72-1.66,3.72-3.72v-5.18
		C696.82,391.77,695.16,390.1,693.1,390.1z M671.45,409.43c-7.19,0-13.01-5.82-13.01-13.01c0-7.19,5.82-13.01,13.01-13.01
		c7.19,0,13.01,5.82,13.01,13.01C684.46,403.61,678.64,409.43,671.45,409.43z"/>
	<path class="st1" d="M206.36,209.99l-2.86-1.09c0.08-1.54,0.03-3.07-0.15-4.57l2.79-1.26c2.64-1.19,3.81-4.29,2.63-6.94l-3.01-6.65
		c-1.19-2.64-4.29-3.81-6.94-2.63l-2.79,1.26c-1.02-1.13-2.13-2.17-3.33-3.14l1.09-2.86c1.02-2.71-0.34-5.73-3.05-6.76l-6.83-2.59
		c-2.71-1.02-5.73,0.34-6.76,3.05l-1.09,2.86c-1.54-0.08-3.07-0.03-4.57,0.15l-1.26-2.79c-1.19-2.64-4.29-3.81-6.94-2.63l-6.65,3.01
		c-2.64,1.19-3.81,4.29-2.63,6.94l1.26,2.79c-1.13,1.02-2.17,2.13-3.14,3.33l-2.86-1.09c-2.71-1.02-5.73,0.34-6.76,3.05l-2.59,6.83
		c-1.02,2.71,0.34,5.73,3.05,6.76l2.86,1.09c-0.08,1.54-0.03,3.07,0.15,4.57l-2.79,1.26c-2.64,1.19-3.81,4.29-2.63,6.94l3.01,6.65
		c1.19,2.64,4.29,3.81,6.94,2.63l2.79-1.26c1.02,1.13,2.13,2.17,3.33,3.14l-1.09,2.86c-1.02,2.71,0.34,5.73,3.05,6.76l6.83,2.59
		c2.71,1.02,5.73-0.34,6.76-3.05l1.09-2.86c1.54,0.08,3.07,0.03,4.57-0.15l1.26,2.79c1.19,2.64,4.29,3.81,6.94,2.63l6.65-3.01
		c2.64-1.19,3.81-4.29,2.63-6.94l-1.26-2.79c1.13-1.02,2.17-2.13,3.14-3.33l2.86,1.09c2.71,1.02,5.73-0.34,6.76-3.05l2.59-6.83
		C210.43,214.04,209.07,211.02,206.36,209.99z M168.18,224.65c-9.47-3.58-14.25-14.18-10.65-23.65
		c3.58-9.47,14.18-14.25,23.65-10.65c9.47,3.58,14.25,14.18,10.65,23.65S177.65,228.25,168.18,224.65z"/>
	<g>
		<g>
			<polygon class="st13" points="305.01,83.57 291.35,112.55 320.69,194.24 397.47,166.67 360.47,63.66 			"/>
			<polygon class="st16" points="312.67,104.89 305.01,83.57 291.35,112.55 			"/>
		</g>
		<g>
			<path class="st15" d="M348.37,126.15c1.89-4.09,3.78-8.2,5.67-12.29c1.11-2.41,0.12-5.69-2.43-6.76
				c-2.52-1.06-5.57-0.15-6.76,2.43c-1.96,4.05-3.9,8.12-5.86,12.17c-4.05-1.92-8.12-3.81-12.21-5.66
				c-2.41-1.18-5.77-0.08-6.83,2.46c-1.09,2.6-0.12,5.57,2.46,6.83c4.01,1.97,8.06,3.89,12.1,5.8c-1.91,4.04-3.8,8.09-5.65,12.17
				c-1.18,2.41-0.08,5.77,2.46,6.83c2.6,1.09,5.57,0.12,6.83-2.46c1.97-4.02,3.9-8.08,5.81-12.13c4.08,1.89,8.17,3.77,12.25,5.66
				c2.41,1.11,5.69,0.12,6.76-2.43c1.06-2.52,0.15-5.57-2.43-6.76C356.5,130.07,352.43,128.11,348.37,126.15z"/>
		</g>
	</g>
	<g>
		<g>
			<polygon class="st13" points="492.4,69.27 466.82,79.72 437.83,148.72 502.68,175.98 539.25,88.96 			"/>
			<polygon class="st16" points="484.82,87.29 492.4,69.27 466.82,79.72 			"/>
		</g>
		<g>
			<path class="st15" d="M495.11,121.6c3.6-1.49,7.18-2.99,10.77-4.49c2.12-0.89,3.39-3.54,2.4-5.7c-0.98-2.15-3.45-3.34-5.7-2.4
				c-3.61,1.44-7.22,2.87-10.81,4.32c-1.46-3.58-2.94-7.16-4.45-10.72c-0.85-2.16-3.62-3.41-5.77-2.43
				c-2.21,1.02-3.33,3.46-2.43,5.77c1.41,3.6,2.84,7.18,4.31,10.75c-3.57,1.46-7.14,2.92-10.68,4.44c-2.16,0.85-3.41,3.62-2.43,5.77
				c1.02,2.21,3.46,3.33,5.77,2.43c3.61-1.41,7.19-2.86,10.77-4.32c1.49,3.58,2.99,7.16,4.48,10.75c0.89,2.12,3.54,3.39,5.7,2.4
				c2.15-0.98,3.34-3.45,2.4-5.7C498,128.84,496.56,125.21,495.11,121.6z"/>
		</g>
	</g>
	<g class="st17">
		<path class="st18" d="M761.61,65.7l0.96,3.9c0.42,1.68-0.53,3.25-2.21,3.67c-1.56,0.39-3.25-0.53-3.67-2.21l-1.55-6.24
			c-0.01-0.06,0.04-0.07,0.03-0.13c-0.08-0.05-0.08-0.05-0.09-0.11c-0.39-1.56,0.65-3.28,2.21-3.67c3.78-0.94,6.1-4.69,5.18-8.42
			c-0.94-3.78-4.72-5.96-8.51-5.03c-2.46,0.61-4.29,2.46-4.94,4.73c-0.48,1.65-2.16,2.57-3.81,2.09c-1.59-0.5-2.5-2.12-2.02-3.77
			c1.24-4.25,4.7-7.78,9.32-8.93c6.96-1.72,14.06,2.51,15.78,9.47C769.77,56.99,766.86,63,761.61,65.7z M764.86,78.84l0.27,1.08
			c0.42,1.68-0.53,3.25-2.21,3.67c-1.56,0.39-3.25-0.53-3.67-2.21l-0.27-1.08c-0.4-1.62,0.65-3.28,2.21-3.67
			C762.87,76.21,764.46,77.22,764.86,78.84z"/>
	</g>
	<g class="st17">
		<path class="st18" d="M731.69,86.76l2.32,2.68c1,1.15,0.88,2.77-0.27,3.77c-1.07,0.93-2.77,0.88-3.77-0.27l-3.71-4.29
			c-0.04-0.04,0.01-0.08-0.03-0.12c-0.08-0.01-0.08-0.01-0.11-0.05c-0.93-1.07-0.8-2.84,0.27-3.77c2.6-2.25,2.91-6.13,0.7-8.69
			c-2.25-2.6-6.1-2.8-8.7-0.55c-1.69,1.46-2.39,3.66-1.99,5.69c0.28,1.49-0.67,2.89-2.16,3.17c-1.45,0.24-2.81-0.67-3.09-2.16
			c-0.73-3.84,0.57-8,3.75-10.75c4.78-4.14,12.05-3.66,16.2,1.13C734.62,76.65,734.74,82.54,731.69,86.76z M739.51,95.79l0.64,0.74
			c1,1.15,0.88,2.77-0.27,3.77c-1.07,0.93-2.77,0.88-3.77-0.27l-0.64-0.74c-0.96-1.11-0.8-2.84,0.27-3.77
			C736.89,94.52,738.54,94.68,739.51,95.79z"/>
	</g>
	<g class="st17">
		<path class="st18" d="M791.65,87.34l-0.41,0.89c-0.64,1.39-2.16,1.95-3.54,1.32c-1.29-0.59-1.95-2.15-1.31-3.54l0.41-0.89
			c0.61-1.34,2.25-1.91,3.54-1.31C791.73,84.43,792.27,86,791.65,87.34z M796.63,76.48l-1.48,3.22c-0.64,1.39-2.15,1.95-3.54,1.32
			c-1.29-0.59-1.95-2.16-1.32-3.54l2.36-5.16c0.02-0.05,0.07-0.03,0.09-0.08c-0.03-0.07-0.03-0.07,0-0.12
			c0.59-1.29,2.25-1.9,3.54-1.31c3.12,1.43,6.79,0.11,8.2-2.96c1.43-3.12,0.02-6.71-3.1-8.14c-2.03-0.93-4.32-0.66-6.01,0.55
			c-1.24,0.87-2.91,0.59-3.78-0.65c-0.82-1.22-0.56-2.84,0.68-3.71c3.19-2.26,7.52-2.79,11.34-1.04c5.75,2.64,8.32,9.46,5.69,15.21
			C807.05,74.96,801.74,77.5,796.63,76.48z"/>
	</g>
	<g>
		<g>
			<polyline class="st19" points="808.89,166.32 803.72,183.68 810.69,185.05 			"/>
			<g>
				<path class="st20" d="M789.72,164.94c0.3,2.95,0.6,6.35,3.1,8.06c2.47,1.22,5.78,0.31,7.5-1.85c1.22-1.53,1.99-3.53,2.46-5.62
					c0.28,2.15-0.08,4.45-1.3,6.44c-1.19,2.08-3.65,3.27-6,3.38C789.8,175.71,788.34,169.26,789.72,164.94L789.72,164.94z"/>
			</g>
			<g>
				<path class="st20" d="M815.4,165.76c0.3,2.95,0.6,6.35,3.1,8.06c2.47,1.22,5.78,0.31,7.5-1.85c1.22-1.53,1.99-3.53,2.46-5.62
					c0.28,2.15-0.08,4.45-1.3,6.44c-1.19,2.08-3.65,3.27-6,3.38C815.48,176.53,814.02,170.06,815.4,165.76L815.4,165.76z"/>
			</g>
			<g>
				<path class="st10" d="M813.35,156.82c5.35-6.2,16.62-4.13,19.87,3.23c-3.23-1.22-6.33-2.64-9.71-3.15
					C820.12,156.3,816.92,156.49,813.35,156.82L813.35,156.82z"/>
			</g>
			<g>
				<path class="st10" d="M788.3,155.84c2.59-4.9,9.86-4.95,13.8-1.73c1.34,1.05,2.43,2.35,3.14,3.89c-0.87-0.16-1.61-0.44-2.35-0.7
					C798.04,155.61,793.47,154.57,788.3,155.84L788.3,155.84z"/>
			</g>
		</g>
	</g>
	<path class="st20" d="M768.75,634.12c0,0-134.12,38.17,19.49,19.98l5.45-26.87L768.75,634.12z"/>
	<polygon class="st20" points="762.38,622.16 770.43,642.29 790.01,636.09 797.26,619.48 	"/>
	<path class="st20" d="M853.52,638.02c0,0-134.12,38.17,19.49,19.98l5.45-26.87L853.52,638.02z"/>
	<polygon class="st20" points="847.14,626.07 855.19,646.19 874.77,639.98 882.02,623.38 	"/>
	<g>
		<path class="st14" d="M282.32,523.99v33.62h-6.39l-16.77-20.42v20.42h-7.69v-33.62h6.44l16.72,20.42v-20.42H282.32z"/>
		<path class="st14" d="M288.19,540.8c0-9.99,7.78-17.39,18.39-17.39c10.57,0,18.39,7.35,18.39,17.39s-7.83,17.39-18.39,17.39
			C295.97,558.18,288.19,550.79,288.19,540.8z M317.1,540.8c0-6.39-4.52-10.76-10.52-10.76c-6.01,0-10.52,4.37-10.52,10.76
			s4.52,10.76,10.52,10.76C312.59,551.55,317.1,547.18,317.1,540.8z"/>
		<path class="st14" d="M365.86,557.61l-6.48-9.36H359h-6.77v9.36h-7.78v-33.62H359c8.99,0,14.61,4.66,14.61,12.2
			c0,5.04-2.55,8.75-6.92,10.61l7.54,10.81H365.86z M358.57,530.33h-6.35v11.73h6.35c4.75,0,7.16-2.21,7.16-5.86
			C365.72,532.49,363.31,530.33,358.57,530.33z"/>
		<path class="st14" d="M405.79,551.37v6.24h-26.04v-33.62h25.41v6.24h-17.68v7.3h15.62v6.05h-15.62v7.78h18.31V551.37z"/>
		<path class="st14" d="M409.34,554.29l2.64-5.86c2.83,2.07,7.06,3.5,11.09,3.5c4.62,0,6.48-1.54,6.48-3.61
			c0-6.29-19.55-1.97-19.55-14.46c0-5.72,4.62-10.48,14.17-10.48c4.23,0,8.55,1.01,11.67,2.98l-2.4,5.9
			c-3.13-1.77-6.35-2.64-9.32-2.64c-4.62,0-6.39,1.73-6.39,3.84c0,6.2,19.55,1.92,19.55,14.27c0,5.62-4.66,10.42-14.26,10.42
			C417.7,558.18,412.32,556.6,409.34,554.29z"/>
		<path class="st14" d="M442.35,542.82v-18.84h7.78v18.54c0,6.39,2.79,9.03,7.5,9.03c4.75,0,7.5-2.64,7.5-9.03v-18.54h7.69v18.84
			c0,9.9-5.67,15.37-15.23,15.37S442.35,552.71,442.35,542.82z"/>
		<path class="st14" d="M480.49,523.99h7.78v27.29h16.86v6.35h-24.64V523.99z"/>
		<path class="st14" d="M513.34,530.33h-10.76v-6.35h29.3v6.35h-10.76v27.29h-7.78V530.33z"/>
		<path class="st14" d="M533.19,554.29l2.64-5.86c2.83,2.07,7.06,3.5,11.09,3.5c4.62,0,6.49-1.54,6.49-3.61
			c0-6.29-19.55-1.97-19.55-14.46c0-5.72,4.62-10.48,14.17-10.48c4.23,0,8.55,1.01,11.67,2.98l-2.4,5.9
			c-3.13-1.77-6.35-2.64-9.32-2.64c-4.62,0-6.39,1.73-6.39,3.84c0,6.2,19.55,1.92,19.55,14.27c0,5.62-4.66,10.42-14.26,10.42
			C541.54,558.18,536.16,556.6,533.19,554.29z"/>
	</g>
</g>
</svg>
