<?xml version="1.0" encoding="utf-8"?>
<!-- Generator: Adobe Illustrator 27.5.0, SVG Export Plug-In . SVG Version: 6.00 Build 0)  -->
<svg version="1.1" id="Livello_1" xmlns="http://www.w3.org/2000/svg" xmlns:xlink="http://www.w3.org/1999/xlink" x="0px" y="0px"
	 viewBox="0 0 1024 700" style="enable-background:new 0 0 1024 700;" xml:space="preserve">
<style type="text/css">
	.st0{opacity:0.7;fill:#19518F;enable-background:new    ;}
	.st1{fill:#FFFFFF;}
	.st2{fill:#3A6592;}
	.st3{fill:#728DB7;}
	.st4{fill:#55D2D0;}
	.st5{fill:#48B7B3;}
	.st6{opacity:0.2;fill:#ACEEE5;enable-background:new    ;}
	.st7{opacity:0.1;fill:#213D5D;enable-background:new    ;}
	.st8{fill:#213D5D;}
	.st9{opacity:0.5;fill:#213D5D;enable-background:new    ;}
	.st10{fill:#DB8E17;}
	.st11{fill:#FFC1B7;}
	.st12{fill:#FFA498;}
	.st13{fill:#F19B94;}
	.st14{fill:#ED6347;}
	.st15{opacity:0.2;fill:#213D5D;enable-background:new    ;}
	.st16{opacity:0.3;fill:#728DB7;enable-background:new    ;}
	.st17{opacity:0.1;fill:#728DB7;enable-background:new    ;}
	.st18{opacity:0.3;fill:#F19B94;enable-background:new    ;}
	.st19{opacity:0.2;fill:#091E30;enable-background:new    ;}
	.st20{fill:#ACEEE5;}
	.st21{opacity:0.3;fill:#D74C2E;enable-background:new    ;}
	.st22{fill:#FFC309;}
	.st23{opacity:0.2;fill:#FFFFFF;enable-background:new    ;}
</style>
<g>
	<path class="st0" d="M524.28,108.34c0,0,63.12,49.33,171.97-4.29c108.83-53.62,254.69-47.18,296.04,85.79
		s48.97,341.41-150.19,347.45c-180.03,5.46-238.41,34.61-305.88,81.78S220.4,684.1,95.8,528.69
		C-3.95,404.28-27.44,272.65,71.1,139.25C193.81-26.94,369.74-7.48,524.28,108.34z"/>
	<g>
		<g>
			<path class="st1" d="M747.44,233.29c0,6.2-5.03,11.23-11.23,11.23H293.32c-6.2,0-11.23-5.03-11.23-11.23v-44.95
				c0-6.2,5.03-11.23,11.23-11.23h442.89c6.2,0,11.23,5.03,11.23,11.23L747.44,233.29L747.44,233.29z"/>
			<path class="st2" d="M736.21,177.11h-72.3v67.43h72.3c6.2,0,11.23-5.03,11.23-11.23v-44.95
				C747.44,182.14,742.41,177.11,736.21,177.11z"/>
			<g>
				<path class="st1" d="M693.68,184.28c-12.92,4.15-20.03,18-15.87,30.93c4.15,12.93,17.99,20.04,30.9,15.89
					c12.92-4.15,20.03-18,15.87-30.93C720.43,187.23,706.59,180.13,693.68,184.28z M720.71,201.41
					c3.46,10.79-2.47,22.35-13.25,25.81c-10.78,3.47-22.33-2.47-25.79-13.26c-3.46-10.79,2.47-22.35,13.25-25.81
					C705.7,184.69,717.25,190.62,720.71,201.41z"/>
				<path class="st1" d="M734.92,232.02c1,0.81,1.15,2.28,0.34,3.28l0,0c-0.81,1-2.28,1.15-3.27,0.34l-13.48-10.87
					c-1-0.81-1.15-2.28-0.34-3.28l0,0c0.81-1,2.28-1.15,3.27-0.34L734.92,232.02z"/>
			</g>
		</g>
		<g>
			<polygon class="st3" points="575.56,266.58 565.02,223.69 605.24,242.34 596.14,250.74 605.91,262.8 596.14,270.76 586.6,258.47 
							"/>
			<polygon class="st2" points="575.56,266.58 565.02,223.69 601.08,266.73 596.14,270.76 586.6,258.47 			"/>
		</g>
	</g>
	<g>
		<path class="st4" d="M453.55,505c0,0-20-45.48,4.66-101.46c0,0,1.54,16.8-1.13,70.74c0,0-1.79-23.52,22.8-63.52
			c0,0-4.38,38.44-19.51,82.47c0,0,8.75-35.3,24.76-47.37C485.12,445.87,483.47,483.3,453.55,505z"/>
		<g>
			<g>
				<g>
					<path class="st2" d="M403.52,368.67c9.73-1.35,22.1-3.48,30.73,2.63c4.72,3.34,7.12,8.89,8.22,14.42
						c1.32,6.6-0.32,13.16-1.01,19.73c-0.69,6.68,0.19,13.26,3.79,19.04c2.91,4.71,7.1,8,12.17,10.12
						c4.89,2.06,10.15,3.22,14.77,5.92c5.23,3.05,9.24,7.82,11.48,13.43c4.89,12.23,2.76,26.49,0.28,39.02
						c-0.19,0.96,1.27,1.36,1.46,0.4c2.28-11.54,4.07-23.95,1.09-35.54c-1.43-5.56-4.12-10.63-8.27-14.62
						c-4.16-4.01-9.33-6.15-14.72-7.98c-5.48-1.87-10.81-3.91-14.72-8.42c-4.93-5.69-6.56-13.03-5.93-20.38
						c0.57-6.62,2.28-13.12,1.28-19.8c-0.84-5.6-3.11-11.44-7.41-15.28c-8.92-7.96-22.86-5.64-33.61-4.15
						C402.16,367.34,402.57,368.79,403.52,368.67L403.52,368.67z"/>
				</g>
			</g>
			<path class="st2" d="M406.02,367.41c0,0,1.24,18.53-22.88,11.17C383.14,378.57,391.11,359.52,406.02,367.41z"/>
			<path class="st2" d="M460.1,435.62c0,0,13.95,12.26-8.33,24.07C451.77,459.7,443.97,440.56,460.1,435.62z"/>
			<path class="st2" d="M446.77,426.91c0,0,1.24,18.53-22.88,11.17C423.9,438.09,431.86,419.03,446.77,426.91z"/>
			<path class="st2" d="M452.25,429.93c0,0-7.34-17.06,17.84-18.17C470.1,411.75,468.94,432.39,452.25,429.93z"/>
			<path class="st2" d="M441.81,412.59c0,0-9.34,16.05-25.21-3.55C416.6,409.04,433.86,397.71,441.81,412.59z"/>
			<path class="st2" d="M443.58,400.15c0,0,8.5-16.51,25.36,2.25C468.94,402.4,452.28,414.61,443.58,400.15z"/>
			<path class="st2" d="M442.96,382.38c0,0,3.26-18.29,24.89-5.33C467.85,377.04,455.53,393.62,442.96,382.38z"/>
			<path class="st2" d="M442.93,389.82c0,0-4.66,17.98-25.23,3.39C417.69,393.21,431.26,377.63,442.93,389.82z"/>
			<path class="st2" d="M436.5,371.37c0,0-8.96-16.27,16.01-19.81C452.5,351.54,453.33,372.19,436.5,371.37z"/>
			<path class="st2" d="M425.07,367.99c0,0,11.81,14.34-12.07,22.43C412.98,390.41,408.36,370.28,425.07,367.99z"/>
			<path class="st2" d="M419.52,366.18c0,0-18.56-0.2-9.37-23.7C410.15,342.5,428.54,351.91,419.52,366.18z"/>
		</g>
		<path class="st4" d="M473.3,645.79c0,0-66.77-57.74-144.59-56.82c0,0,18.89,10.2,83.34,34.01c0,0-26.62-13.86-85.71-5.03
			c0,0,47.15,14.08,106.25,18.34c0,0-45.66-7.39-67.79,5.34C364.78,641.63,432.94,670,473.3,645.79z"/>
		<path class="st4" d="M453.28,508.77c0,0,5.4-49.39-34.93-95.37c0,0,3.58,16.48,22.34,67.12c0,0-5.35-22.97-40.83-53.72
			c0,0,15.73,35.34,43.39,72.79c0,0-18.95-31.03-37.84-37.72C405.4,461.88,418.23,497.08,453.28,508.77z"/>
		<path class="st4" d="M613.23,378.29c0,0,34.04-36.17,29.51-97.17c0,0-7.06,15.32-22.57,67.06c0,0,9.55-21.57-0.26-67.5
			c0,0-8.72,37.68-9.18,84.25c0,0,3.56-36.19-7.51-52.92C603.24,311.99,592.3,347.82,613.23,378.29z"/>
		<path class="st4" d="M682.08,456.27c0,0-4.53-48.76,33.25-95.96c0,0-3.48,16.49-21.32,67.46c0,0,5.17-23,38.31-54.9
			c0,0-14.89,35.67-40.86,73.91c0,0,17.83-31.53,35.39-38.92C726.84,407.84,714.63,443.26,682.08,456.27z"/>
		<path class="st4" d="M632.08,644.28c0,0,11.04-63.44,80.74-100.44c0,0-10.74,18.56-53.89,71.79c0,0,32.75-38.24,90.49-58.84
			c0,0-50.86,48.42-100.84,81.07c0,0,36.2-29,63.41-28.05C711.98,609.8,682.29,646.92,632.08,644.28z"/>
		<g>
			<g>
				<g>
					<path class="st2" d="M306.62,552.77c6,7.98,12.6,16.29,21.6,21c8.57,4.48,18.45,4.98,27.94,4.72
						c5.43-0.15,10.59-0.39,15.75,1.63c4.15,1.63,7.72,4.4,10.92,7.44c6.63,6.3,12.28,13.73,20.54,18.03
						c6.43,3.36,13.88,4.72,21.09,4.29c8.4-0.5,16.4-3.26,24.18-6.28c1.4-0.54,0.8-2.82-0.63-2.28
						c-13.26,5.14-27.73,9.21-41.47,3.18c-8.52-3.74-14.31-10.98-20.75-17.37c-6.48-6.43-13.96-11.05-23.33-11.22
						c-5.54-0.11-11.02,0.43-16.58,0.03c-4.45-0.32-8.88-1.09-13.06-2.7c-10.35-3.97-17.71-13.08-24.16-21.69
						C307.75,550.37,305.7,551.54,306.62,552.77L306.62,552.77z"/>
				</g>
			</g>
			<path class="st2" d="M312.67,558c0,0-19.39,3.79-14.85-22.67C297.82,535.33,318.99,541.2,312.67,558z"/>
			<path class="st2" d="M386.48,587.58c0,0-18.1-7.93,0.69-27.11C387.16,560.47,401.23,577.36,386.48,587.58z"/>
			<path class="st2" d="M406.83,606.68c0,0,15.15,12.68-8.25,25.83C398.59,632.5,389.81,612.35,406.83,606.68z"/>
			<path class="st2" d="M393.11,597.77c0,0,4.15,19.33-22.38,15.28C370.72,613.07,376.19,591.77,393.11,597.77z"/>
			<path class="st2" d="M372.76,580.01c0,0,8.5,17.84-18.25,20.05C354.51,600.07,354.92,578.07,372.76,580.01z"/>
			<path class="st2" d="M354.51,576.45c0,0-16.74-6.28-0.7-24.53C353.81,551.92,367.35,566.49,354.51,576.45z"/>
			<path class="st2" d="M337.65,577.44c0,0,16.9,10.24-4.23,26.78C333.42,604.21,321.68,585.62,337.65,577.44z"/>
			<path class="st2" d="M317.61,565.58c0,0-0.71,19.76-25.44,9.32C292.17,574.91,302.7,555.6,317.61,565.58z"/>
			<path class="st2" d="M329.82,572c0,0-15.42-12.35,7.69-26C337.52,546,346.72,565.96,329.82,572z"/>
		</g>
		<g>
			<path class="st5" d="M488.11,636.95c0,0,17.44-79.52-23.26-86.3c-49.2-8.2-15.34-53.18-55.23-60.12
				c-39.9-6.95-15.79-55.98-45.28-69.88s-27.76,28.65-8.68,53.81c19.08,25.17-26.88,43.4,26.02,76.39s-18.22,57.29,71.13,87.66
				C542.15,668.92,488.11,636.95,488.11,636.95z"/>
			<path class="st6" d="M490.36,649.93c-1.04-1.39-2.1-2.81-3.22-4.25c-81.27-105.55-137.42-226.55-137.58-226.9
				c-13.17,5.42-8.88,35.92,6.1,55.7c19.08,25.17-26.88,43.4,26.02,76.39c52.91,32.99-18.22,57.29,71.13,87.66
				C470.38,644.51,482.39,648.07,490.36,649.93z"/>
		</g>
		<g>
			<path class="st5" d="M495.11,641.27c0,0,66.34-47.11,40.79-79.52c-30.9-39.19,24.39-49.67-0.47-81.66
				c-24.86-31.99,25.93-52.06,13.45-82.19c-12.49-30.13-39.8,2.52-42.58,33.99c-2.79,31.48-49.07,14.03-32.07,74.04
				c16.99,60.02-51.98,30.14-6.28,112.75S495.11,641.27,495.11,641.27z"/>
			<path class="st6" d="M488.06,652.38c0.16-1.73,0.32-3.49,0.47-5.31c10.78-132.81,50.55-260.15,50.67-260.51
				c-13.38-4.84-30.71,20.59-32.91,45.33c-2.79,31.48-49.07,14.03-32.07,74.04c16.99,60.02-51.98,30.14-6.28,112.75
				C476.92,634.92,483.41,645.64,488.06,652.38z"/>
		</g>
		<g>
			<path class="st5" d="M575.76,520.05c0,0-16.59-75.61,22.11-82.07c46.78-7.81,14.58-50.56,52.52-57.17
				c37.94-6.61,15.01-53.23,43.06-66.44c28.04-13.2,26.39,27.24,8.25,51.17c-18.14,23.94,25.56,41.27-24.74,72.64
				c-50.31,31.37,17.32,54.47-67.62,83.36C524.38,550.44,575.76,520.05,575.76,520.05z"/>
			<path class="st6" d="M573.62,532.39c1-1.32,2.01-2.67,3.06-4.05c77.29-100.36,130.66-215.43,130.83-215.75
				c12.52,5.15,8.45,34.15-5.81,52.96c-18.14,23.94,25.56,41.27-24.74,72.64c-50.31,31.37,17.32,54.47-67.62,83.36
				C592.62,527.22,581.21,530.61,573.62,532.39z"/>
		</g>
	</g>
	<g>
		<g>
			<ellipse class="st7" cx="692.41" cy="664.57" rx="282.08" ry="15.17"/>
		</g>
		<g>
			<g>
				<g>
					<path class="st8" d="M680.51,650.8c0,0-81.37,28.5,12.76,11.63l2.37-16.79L680.51,650.8z"/>
					<path class="st8" d="M898.22,644.91c0,0,77.99,56.83,12.25-12.68l-15.34,7.23L898.22,644.91z"/>
				</g>
				<g>
					<path class="st2" d="M833.62,440.49c0,0,28.46,39.57,14.53,83.43c-13.95,43.86-43.69,76.01-49.73,89.88
						c0,0,19.03-8.36,44.13-2.7c25.11,5.66,59.03,22.9,59.03,22.9l1.09,18.54c0,0-137.55,12.96-155.58,5.39
						c-18.03-7.57,13.35-136.64,13.35-136.64s-44.32,2.9-69.38-4.88c0,0,12.8,17.95,15.23,54.57c2.43,36.62-10.81,79.8-10.81,79.8
						l-20.36,0.09c0,0-34.69-132.45-27.3-168.09c7.38-35.62,110.4-28.34,110.4-28.34l11.7-23.55L833.62,440.49z"/>
					<path class="st9" d="M787.58,451.16c15.13,1.5,35.55,3.49,50.01-4.13c-1.51-2.5-4.66-7.09-4.66-7.09l-63.01-9.02l-7.86,15.81
						C770.43,448.79,778.93,450.31,787.58,451.16z"/>
					<path class="st9" d="M760.44,521.3c0,0-0.08,0.43-0.2,1.23c0.3-0.35,0.65-0.66,1.06-0.9c-14.1-18.57-17.51-45.15-22.52-67.76
						c-30.23-0.13-85.61,3.17-90.95,28.94c-7.38,35.62,27.3,168.09,27.3,168.09l20.36-0.09c0,0,13.22-43.18,10.81-79.8
						c-2.43-36.62-15.23-54.57-15.23-54.57C716.12,524.19,760.44,521.3,760.44,521.3z"/>
				</g>
			</g>
			<g>
				<g>
					<g>
						<path class="st10" d="M834.42,245.16c0,0-32.99-13.53-46.09,11.71c-13.1,25.23-4.1,41.82-29.89,57.86
							c-25.79,16.04-25.5,50.13,0.3,67.14c25.79,16.99,72.61-8.55,72.61-8.55L834.42,245.16z"/>
					</g>
					<g>
						<path class="st11" d="M808.91,328.05c0,0,0.47,19.21-2.34,21.08c-2.8,1.87-24.8-11.71-38.84,0.47s23.39,60.41,34.16,60.88
							c10.77,0.47,51.94-12.18,51.48-25.76c-0.47-13.58-22.94-27.63-21.06-55.73C834.18,300.89,808.91,328.05,808.91,328.05z"/>
						<path class="st12" d="M808.42,342.99c8.36-0.07,16.49-1.39,24-4.96c-0.26-2.89-0.31-5.89-0.11-9.05
							c1.87-28.09-23.39-0.93-23.39-0.93S809.13,336.74,808.42,342.99z"/>
						<path class="st11" d="M827.52,254.87c0,0-23.17-1.74-32.76,22.62c-9.95,25.27-9.47,52.5,14.86,56.66
							c24.34,4.15,47.14-17.53,48.55-36C859.57,279.69,856.07,257.18,827.52,254.87z"/>
					</g>
					<g>
						<g>
							<path class="st10" d="M819.56,256.62c0,0-3.85,17.56,22.11,33.02c0,0-32.29,58.65-4.92,76.93
								c27.37,18.26-1.77,44.13,10.51,57.82c12.29,13.7,53.03,6.11,69.16-30.08c21.76-48.82-49.48-57.6-36.86-99.05
								c0,0,10.17-30.21-12.29-47.07C845.54,231.88,823.08,236.26,819.56,256.62z"/>
							<g>
								<path class="st10" d="M920.51,394.96c10.57-28.21-7.06-41.5-25.87-58.76c-6.83-6.55-13.64-14.03-15.9-23.56
									c-2.7-9.62,2.2-18.61,2.17-28.16c0.28-9.09-1.81-18.52-7.45-25.77c-8.15-10.14-23.08-17.83-36.24-16.31
									c-9.68,1-16.79,8.67-18.14,18.21c0.77-9.83,8.03-18.05,17.95-19.46c9.57-1.48,19.19,1.92,27.3,6.81
									c8.4,4.73,14.85,12.93,17.34,22.29c2.56,9.33,2.09,19.27-0.31,28.47c-1.08,4.37-1.25,9-0.23,13.37
									c3.4,13.81,15.55,22.5,25.24,32.23C921.95,358.96,929.77,373.99,920.51,394.96L920.51,394.96z"/>
							</g>
						</g>
						<path class="st11" d="M848.35,295.26l-6.67,17.56c0,0,7.51,6.45,14.04-4.92C862.39,296.32,855.37,289.99,848.35,295.26z"/>
					</g>
				</g>
				<g>
					<path class="st1" d="M850.1,313.88c0,1.74-1.41,3.16-3.15,3.16c-1.74,0-3.15-1.42-3.15-3.16c0-1.74,1.41-3.16,3.15-3.16
						C848.68,310.72,850.1,312.14,850.1,313.88z"/>
					<g>
						<g>
							<path class="st13" d="M812.66,285.43c-2.87,5.42-6.5,10.29-10.39,14.98l-0.2-1.12c1.95,1.38,3.88,2.78,5.69,4.4
								c-2.25-0.88-4.38-1.97-6.48-3.1l-0.71-0.38C804.16,294.94,808.01,289.86,812.66,285.43L812.66,285.43z"/>
						</g>
						<g>
							<path class="st8" d="M797.18,279.58c-0.75,2.89-1.67,6.19,0.08,8.69c1.89,2.02,5.34,2.33,7.71,0.9
								c1.68-1,3.11-2.62,4.29-4.42c-0.5,2.12-1.64,4.15-3.49,5.61c-2.86,2.28-7.55,1.87-9.86-1.04
								C793.85,286.21,795.28,282.21,797.18,279.58L797.18,279.58z"/>
						</g>
						<g>
							<path class="st8" d="M821.03,289.41c-0.75,2.89-1.67,6.19,0.08,8.69c1.89,2.02,5.34,2.33,7.71,0.9
								c1.68-1,3.11-2.62,4.29-4.42c-0.5,2.12-1.64,4.15-3.49,5.61c-2.86,2.28-7.55,1.87-9.86-1.04
								C817.71,296.05,819.14,292.04,821.03,289.41L821.03,289.41z"/>
						</g>
						<g>
							<path class="st13" d="M800.03,311.65c5.53,2.83,11.32,3.17,17.32,2.58C812,317.46,804.01,316.71,800.03,311.65L800.03,311.65
								z"/>
						</g>
						<g>
							<path class="st14" d="M822.26,280.28c5.31-2.93,12.53-0.39,15.66,4.61c1.09,1.62,1.71,3.53,1.89,5.46
								c-0.81-0.61-1.4-1.28-2.08-1.87C833.35,284.21,828.23,281.74,822.26,280.28L822.26,280.28z"/>
						</g>
						<g>
							<path class="st14" d="M799.05,270.5c4.16-3.7,11.02-1.17,13.6,3.25c0.89,1.46,1.46,3.08,1.58,4.77
								c-0.75-0.47-1.36-0.98-1.95-1.48C808.29,273.73,804.36,271.14,799.05,270.5L799.05,270.5z"/>
						</g>
					</g>
				</g>
			</g>
			<g>
				<g>
					<g>
						<path class="st11" d="M748.31,376.05l-21.76,23.89l-80.02-29.51l-2.8,17.56c0,0,77.22,42.15,84.94,42.15
							s44.93-40.04,44.93-40.04L748.31,376.05z"/>
						<path class="st12" d="M681.65,383.37l-35.11-12.95l-2.8,17.56c0,0,29.62,16.17,54.01,28.48
							C692.68,405.28,687.55,394.14,681.65,383.37z"/>
						<path class="st12" d="M767.5,396.52c3.69-3.84,6.09-6.42,6.09-6.42l-25.27-14.05l-5.13,5.64
							C751.3,386.62,758.84,392.59,767.5,396.52z"/>
						<path class="st12" d="M656.88,376.94c0,0-0.3-35.44-4.76-5.35C647.64,401.66,656.88,376.94,656.88,376.94z"/>
					</g>
					<path class="st4" d="M761.37,389.43l-18.31-13.24c0,0,19.72-30.17,35.44-31.28C778.5,344.91,762.77,376.19,761.37,389.43z"/>
				</g>
				<g>
					<path class="st4" d="M778.5,344.91c0,0-6.08,22.48,21.06,33.25c27.14,10.78,38.84-15.46,47.73-0.47s-12.64,64.16-12.64,64.16
						s-37.44,2.81-65.51-10.3c0,0-1.4-10.78-1.87-20.61c0,0-26.67-12.41,0-44.02l0.47-17.33
						C767.74,349.59,771.02,344.91,778.5,344.91z"/>
					<path class="st15" d="M822.66,422.32c-12.87-1.62-25.81-3.49-38.5-6.12c-5.55-1.15-11.56-2.54-16.87-5.08
						c0.47,9.79,1.86,20.43,1.86,20.43c28.07,13.11,65.51,10.3,65.51,10.3s3.33-7.62,6.83-17.76
						C835.19,423.69,828.91,423.12,822.66,422.32z"/>
				</g>
			</g>
			<g>
				<g>
					<g>
						<polygon class="st10" points="484.56,652.07 446.43,662.15 427.01,485.75 497.51,485.75 501.11,498.71 587.43,498.71 
							596.07,646.31 						"/>
						<polygon class="st1" points="452.9,655.67 448.59,505.2 642.83,504.47 602.54,651.36 						"/>
						<polygon class="st16" points="452.9,655.67 448.59,505.2 642.83,504.47 602.54,651.36 						"/>
						<polygon class="st1" points="466.58,652.07 462.25,509.52 656.5,508.8 616.22,655.67 						"/>
						<polygon class="st17" points="466.58,652.07 462.25,509.52 656.5,508.8 616.22,655.67 						"/>
					</g>
					<g>
						<polygon class="st1" points="533.77,576.47 529.45,433.91 723.69,433.19 717.22,580.78 						"/>
						<polygon class="st17" points="531.66,516.5 533.77,576.47 717.22,580.78 721.37,486.09 						"/>
					</g>
					<g>
						<polygon class="st1" points="465.78,472.79 461.47,330.24 655.72,329.52 649.24,477.12 						"/>
						<polygon class="st17" points="464.99,446.28 465.78,472.79 649.24,477.12 655.49,334.5 						"/>
					</g>
					<polygon class="st10" points="446.43,662.15 637.79,662.15 694.62,507.36 631.33,507.36 625.57,518.16 495.35,518.16 					"/>
				</g>
				<g>
					<path class="st11" d="M805.54,400.48l-36.36,39.64c0,0-47.56,5.18-58.31,6.41c-0.96,0.11-1.75,0.2-2.45,0.3
						c-12.33-9.59-7.12-2.58-4.29,0.89c-35.25,8.02-5.39,4.67-5.39,4.67c-31.66,11.18,2.01,3.12,2.01,3.12
						c-24.67,18.17,2.33,2.79,2.33,2.79c-18.33,18.09,3.72,1.4,3.72,1.4s64.25,6.53,77.29,0.93c13.03-5.6,40.04-34.49,40.04-34.49
						C813.42,419.61,805.54,400.48,805.54,400.48z"/>
					<path class="st12" d="M820.44,429.98c2.3-2.36,3.69-3.86,3.69-3.86c-10.71-6.53-18.58-25.65-18.58-25.65l-10.46,11.4
						C803.43,418.08,811.82,424.19,820.44,429.98z"/>
					<path class="st4" d="M796.57,406.34l28.45,20.58c0,0,9.58-9.87,16.33-20.01c6.75-10.14-28.17-21.15-28.17-21.15L796.57,406.34z
						"/>
				</g>
			</g>
		</g>
	</g>
	<g>
		<g>
			<ellipse class="st7" cx="235.56" cy="666.83" rx="111.96" ry="15.17"/>
		</g>
		<g>
			<g>
				<g>
					<path class="st13" d="M185.76,165.99l-4.33,31.56l-22.11,2.05c0,0,25.69,19.08,47.8,22.39c22.13,3.3,31.53-12.97,31.53-12.97
						l-26.21-6.06l4.07-30.28L185.76,165.99z"/>
					<path class="st18" d="M185.76,165.99l-4.33,31.56l-22.11,2.05c0,0,25.69,19.08,47.8,22.39c22.13,3.3,31.53-12.97,31.53-12.97
						l-26.21-6.06l4.07-30.28L185.76,165.99z"/>
				</g>
				<g>
					<path class="st11" d="M180.13,129.32c0,0-5.11-11.69-13.14-0.73c-8.03,10.96,5.84,25.81,12.65,29.23
						C186.46,161.23,180.13,129.32,180.13,129.32z"/>
					<path class="st11" d="M259.05,118.37c0,0-5.03,61.96-24.16,73.03c-19.12,11.09-58.41,1.54-55.86-45.84
						c3.02-56.42,32.21-61.96,43.78-61.96C234.39,83.63,260.56,98.73,259.05,118.37z"/>
					<path class="st8" d="M214.7,101.31c0,0,2.2,20.22,28.72,28.5l-7.79-9.74c0,0,13.87,10.96,25.79,14.86l-1.94-9.49l4.38,6.34
						c0,0,1.94-7.8-0.24-17.29l7.06,13.39c0,0,3.89-30.2-27.02-43.85s-42.34,3.65-42.34,3.65l6.58-0.73c0,0-14.61-13.64-26.78,3.65
						c-7.09,10.07-8.26,23.22-6.33,33.12c4.86,3.41,5.35,12.91,5.35,12.91l-0.49,14.12l6.82,1.46l1.94-26.06
						c0,0,15.09-9.01,14.61-25.09c0,0,0.73,18.52,29.2,29.23L214.7,101.31z"/>
				</g>
			</g>
			<g>
				<g>
					<path class="st8" d="M199.77,144.93c0.27-4.03,1.31-8.5,4.55-11.3c4.16-3.36,9.49,0.36,10.04,5.1
						c0.53,2.75,0.31,5.52-0.39,8.12c-0.08-2.67-0.31-5.34-1.04-7.75c-0.66-2.27-2.05-4.42-4.47-4.79
						C203.54,133.68,201.29,141.08,199.77,144.93L199.77,144.93z"/>
				</g>
				<g>
					<path class="st8" d="M233.6,151.99c0.27-4.03,1.31-8.5,4.55-11.3c4.16-3.36,9.49,0.36,10.04,5.1c0.53,2.75,0.31,5.52-0.39,8.12
						c-0.08-2.67-0.31-5.34-1.04-7.75c-0.66-2.27-2.05-4.42-4.47-4.79C237.36,140.75,235.11,148.15,233.6,151.99L233.6,151.99z"/>
				</g>
				<g>
					<path class="st13" d="M231.97,137.85c1.75,9.82,2.43,19.74,2.53,29.7c-2.05,0.47-4.11,0.9-6.19,1.23
						c1.78-0.82,3.6-1.56,5.43-2.27l-0.42,0.61C232.18,157.39,231.54,147.64,231.97,137.85L231.97,137.85z"/>
				</g>
				<path class="st1" d="M201.3,167.07l35.29,7.31C236.6,174.38,217.12,184.85,201.3,167.07z"/>
				<g>
					<path class="st8" d="M196.83,128.05c6.01-7.61,20.35-8.24,23.88,2.02c-2.06-1.19-3.75-2.41-5.67-2.99
						C209.02,124.91,202.95,126.72,196.83,128.05L196.83,128.05z"/>
				</g>
				<g>
					<path class="st8" d="M235.14,134.68c4.76-6.47,15.79-7.46,19.76,0.4c0.49,0.97,0.78,2.04,0.98,3.06
						c-0.93-0.62-1.59-1.36-2.4-1.92C248.16,131.7,241.45,133.15,235.14,134.68L235.14,134.68z"/>
				</g>
			</g>
		</g>
		<g>
			<g>
				<g>
					<g>
						<path class="st11" d="M203.61,608.44c0,0,2.67,49.97-1.15,54.54c-3.81,4.57-91.1,27.08-17.91-11.06l-7.24-64.47l22.87,27.46"
							/>
						<g>
							<path class="st8" d="M155.51,671.32c-2.2,7.66,44.2-5.02,46.96-8.33c0.38-0.46,0.69-1.38,0.96-2.63
								C196.57,664.09,165.52,672.6,155.51,671.32z"/>
						</g>
						<path class="st8" d="M164.35,662.32l4.57-2.67l10.96,8.67l-6.67,2.86c0,0-4.47-8.67-12.76,0.38L164.35,662.32z"/>
					</g>
					<path class="st19" d="M204.5,643.7c0.15-15.75-0.89-35.25-0.89-35.25l-3.44,6.49l-22.87-27.46l6.4,56.94
						C190.63,644.14,197.57,643.9,204.5,643.7z"/>
				</g>
				<g>
					<g>
						<path class="st11" d="M251.16,608.44c0,0-2.67,49.97,1.15,54.54c3.81,4.57,93.01,26.2,19.82-11.94l-1.79-77.31l-15.74,41.19"
							/>
						<g>
							<path class="st8" d="M299.27,671.32c2.2,7.66-44.2-5.02-46.96-8.33c-0.38-0.46-0.69-1.38-0.96-2.63
								C258.2,664.09,289.25,672.6,299.27,671.32z"/>
						</g>
						<path class="st8" d="M292.25,661.47l-4.57-2.67l-12.79,9.52l6.67,2.86c0,0,4.47-8.67,12.76,0.38L292.25,661.47z"/>
					</g>
					<path class="st19" d="M271.96,643.25l-1.62-69.51l-15.74,41.18l-3.44-6.49c0,0-1.33,25.05-0.77,41.28
						C257.69,647.85,264.91,645.81,271.96,643.25z"/>
				</g>
			</g>
			<g>
				<polygon class="st4" points="149.4,388.42 179.93,637.29 206.84,637.1 201.22,413.71 213.86,414.41 248.95,634.28 
					276.79,631.95 260.42,365.71 				"/>
				<path class="st19" d="M258.75,386.72l-1.78-24.25l-107.55,25.96l1.67,13.58C187.07,397.58,223.09,393.35,258.75,386.72z"/>
				<polygon class="st20" points="173.82,626.61 208.36,625.8 209.66,638.45 178.27,641.35 				"/>
				<polygon class="st20" points="277.94,623.84 245.76,628.78 247.24,641.4 278.61,638.45 				"/>
			</g>
		</g>
		<g>
			<g>
				<path class="st11" d="M269.83,248.52l28.17,36.12c0,0,67.04-44.22,71.28-43.7c4.23,0.53-62.72,85.97-74.09,89.03
					s-62.69-66.56-62.69-66.56L269.83,248.52z"/>
				<path class="st21" d="M278.52,259.65l-8.68-11.13l-37.33,14.89c0,0,6.43,8.73,15.24,19.87
					C258.02,275.43,269.32,268.8,278.52,259.65z"/>
				<path class="st21" d="M321.02,304.91c22.79-26.23,51.05-63.62,48.24-63.97c-2.96-0.38-36.75,21.21-56.72,34.18
					C315.63,284.97,318.71,294.85,321.02,304.91z"/>
			</g>
			<g>
				<path class="st10" d="M176.11,197.57c0,0-31.28-2.99-38.91,17.94c-7.63,20.92,2.29,138.23,9.15,174.09
					c0,0,66.37,6.73,119.76-7.47c0,0-10.67-107.6-9.15-127.02c1.52-19.42,6.86-45.57-23.65-49.31c0,0-10.67,18.68-32.03,14.2
					C179.93,215.49,176.11,197.57,176.11,197.57z"/>
				<path class="st15" d="M135.21,276.75c1.91,41.5,7.07,91.54,11.14,112.83c0,0,66.37,6.73,119.76-7.47c0,0-4.66-46.97-7.38-84.45
					C216.31,295.29,174.3,289.55,135.21,276.75z"/>
				<path class="st10" d="M233.32,205.78c0,0,22.57-3.1,40.2,37.22c4.92,11.23,4.92,11.23,4.92,11.23l-30.89,19.66L233.32,205.78z"
					/>
			</g>
			<g>
				<g>
					
						<rect x="283.4" y="295.02" transform="matrix(0.5455 -0.8381 0.8381 0.5455 -104.9006 414.1449)" class="st2" width="92" height="17.55"/>
					
						<rect x="283.4" y="295.02" transform="matrix(0.5455 -0.8381 0.8381 0.5455 -104.9006 414.1449)" class="st9" width="92" height="17.55"/>
					<ellipse class="st2" cx="396.96" cy="204" rx="84.32" ry="84.39"/>
					<ellipse class="st4" cx="396.96" cy="204.02" rx="67.37" ry="67.42"/>
					<path class="st22" d="M226.57,425.79c-3.38,5.21-1.91,12.17,3.27,15.55l11.17,7.28c5.2,3.39,12.16,1.92,15.54-3.28
						l78.92-121.26c3.38-5.21,1.91-12.17-3.27-15.55l-11.17-7.28c-5.2-3.39-12.16-1.92-15.54,3.28L226.57,425.79z"/>
					<path class="st15" d="M321.02,301.25l4.7,3.06c-5.2-3.39-12.16-1.92-15.54,3.28l-78.92,121.26
						c-3.38,5.21-1.91,12.17,3.27,15.55l-4.7-3.06c-5.2-3.39-6.67-10.36-3.27-15.55l78.92-121.26
						C308.87,299.34,315.82,297.87,321.02,301.25z"/>
					<g>
						<path class="st23" d="M456.65,172.74l-126.27,41.42c-0.94-6.19-1.05-12.53-0.24-18.81l119.33-33.6
							C452.23,165.18,454.63,168.88,456.65,172.74z"/>
						<path class="st23" d="M463.06,191.06c0.7,3.59,1.11,7.23,1.23,10.88L344.2,245.93c-3.85-4.86-6.99-10.18-9.35-15.79
							L463.06,191.06z"/>
					</g>
				</g>
				<g>
					<path class="st11" d="M147.17,271.8l41.41-10.53c0,0,4.22,34.42,9.82,62.53c9.12,9.83,42.54,63.68,46.33,68.85
						c0,0,35.09,0,5.62,4.22c0,0,40.71,34.42-2.8,5.62c0,0,45.63,38.64-2.8,4.22c0,0,39.31,35.12-3.5,4.22c0,0,24.57,30.21-3.5,2.81
						c-15.77-15.39-53.62-47.8-70.2-75.16C154.61,317.18,154.24,287.51,147.17,271.8z"/>
					<path class="st21" d="M190.21,268.6c-1.01-4.56-1.63-7.34-1.63-7.34l-41.41,10.53c1.25,2.79,2.47,6.24,3.67,10.13
						C163.76,276.88,176.8,272.19,190.21,268.6z"/>
				</g>
			</g>
		</g>
	</g>
</g>
</svg>
